<?xml version="1.0" standalone="no"?>
<!DOCTYPE svg PUBLIC "-//W3C//DTD SVG 20010904//EN"
 "http://www.w3.org/TR/2001/REC-SVG-20010904/DTD/svg10.dtd">
<svg version="1.0" xmlns="http://www.w3.org/2000/svg"
 width="512.000000pt" height="512.000000pt" viewBox="0 0 512.000000 512.000000"
 preserveAspectRatio="xMidYMid meet">
<metadata>
Created by potrace 1.14, written by Peter Selinger 2001-2017
</metadata>
<g transform="translate(0.000000,512.000000) scale(0.100000,-0.100000)"
fill="#000000" stroke="none">
<path d="M2509 3579 c-68 -10 -132 -47 -269 -156 -143 -114 -297 -269 -324
-327 -27 -56 -32 -151 -13 -217 21 -70 54 -119 156 -230 l82 -88 -97 -108
c-122 -137 -148 -188 -149 -298 0 -107 21 -151 127 -261 94 -99 310 -275 390
-319 48 -27 62 -30 143 -30 79 0 97 3 144 27 140 73 456 358 501 452 67 140
23 272 -152 459 l-73 79 68 71 c96 102 155 182 169 230 19 66 15 175 -9 227
-11 25 -58 85 -104 134 -96 102 -320 286 -393 323 -58 29 -132 41 -197 32z"/>
</g>
</svg>
